<svg width="250mm" height="63mm" version="1.1" viewBox="0 0 250 63" xmlns="http://www.w3.org/2000/svg"><path d="m20.165 58.366c-0.11431-0.04983-0.60215-0.36942-1.0839-0.71049-6.9731-4.9366-12.438-10.85-15.285-16.536-1.3549-2.7069-2.2867-5.7332-2.4352-7.9085-0.080604-1.1792 0.34843-1.3468 2.4302-0.94966 2.6955 0.51425 4.7399 1.1876 6.8232 2.2474 1.7722 0.90148 3.1869 1.9195 4.5336 3.2623 3.3794 3.3695 5.336 8.1419 5.9864 14.602 0.13666 1.3577 0.22642 3.06 0.22642 4.2958 0 1.2459-0.05203 1.4136-0.51235 1.6497-0.32351 0.16597-0.40042 0.1711-0.68385 0.04799zm5.1079 0.02565c-0.29494-0.08646-0.5791-0.44255-0.63138-0.79142-0.05679-0.37909 0.07218-3.597 0.19675-4.9097 0.55811-5.8799 2.1481-10.34 4.8685-13.658 0.64344-0.78464 1.8448-1.9764 2.5756-2.5552 2.5764-2.0401 5.9549-3.4731 9.9567-4.2229 1.3166-0.24658 1.9064-0.24694 2.168-0.0014 0.28248 0.26563 0.31912 0.52546 0.19894 1.414-0.60948 4.5046-2.8324 9.1815-6.5416 13.763-2.0578 2.5419-4.9509 5.3891-7.8843 7.7594-1.0587 0.85546-2.8811 2.2203-3.7498 2.8083-0.60841 0.41185-0.83333 0.48831-1.1571 0.39346zm138.27-10.508v-1.1409l1.4824-0.02931c0.88356-0.01832 1.5808-0.06119 1.7259-0.10662 0.33963-0.10625 0.72213-0.47307 0.93673-0.89818 0.1-0.19821 0.39797-0.89968 0.6623-1.5594l0.48062-1.1994-3.0333-7.817c-1.6683-4.2993-3.0479-7.8534-3.0657-7.8979-0.0257-0.06412 0.24804-0.0773 1.3269-0.06376l1.3594 0.01832 2.3911 6.2c1.3151 3.4099 2.4117 6.1786 2.4368 6.1526 0.0257-0.02565 1.0206-2.6582 2.2121-5.8492 1.1915-3.1911 2.2286-5.967 2.3046-6.1686l0.13849-0.3666h1.3343c0.7339 0 1.3344 0.01466 1.3344 0.03298 0 0.03298-6.2448 15.891-7.2171 18.328-0.82373 2.0644-1.3078 2.7939-2.1134 3.185-0.5617 0.27259-1.0032 0.32058-2.9589 0.32132l-1.7374 4.76e-4zm-79.506-4.897c-0.55507-0.06045-1.3613-0.30886-1.9765-0.609-0.59339-0.28944-0.73826-0.39587-1.2752-0.93629-0.69953-0.70411-1.056-1.2794-1.379-2.2254-0.43237-1.2666-0.42493-1.1534-0.45189-6.88l-0.02565-5.1803h2.4928l3.8e-5 4.3196c7.3e-5 4.4754 0.03664 5.3561 0.2605 6.2324 0.41918 1.6436 1.4768 2.673 3.0239 2.9431 0.65205 0.11394 1.4317 0.0861 2.0395-0.07181 1.1473-0.2986 2.1215-1.1036 2.6646-2.2017 0.35539-0.71888 0.59313-1.6038 0.68184-2.5393 0.03664-0.37554 0.06448-2.4734 0.06448-4.6813l7.3e-5 -4.0008h2.4866v15.685h-1.0827c-1.0712 0-1.083-0.0014-1.1133-0.14362-0.01832-0.07877-0.09269-0.53371-0.1689-1.0106l-0.13813-0.86715-0.5237 0.51649c-1.1815 1.1652-2.6528 1.7099-4.5532 1.6858-0.44251-0.0036-0.90496-0.02198-1.0277-0.03297zm43.706-0.02565c-0.66271-0.09562-1.507-0.36492-2.182-0.69645-2.5215-1.2383-4.139-3.8411-4.6544-7.4896-0.13813-0.97754-0.15608-4.211-0.0293-5.1326 0.35978-2.5995 1.2612-4.6863 2.6745-6.1924 1.7017-1.8133 4.097-2.6353 6.5812-2.2586 1.5907 0.24108 2.8581 0.89749 4.0534 2.099 1.5306 1.5386 2.4663 3.629 2.8433 6.352 0.1275 0.92152 0.10952 4.155-0.0293 5.1326-0.51575 3.6511-2.1425 6.2672-4.6649 7.5019-0.722 0.35356-1.2259 0.5159-2.0364 0.65652-0.61006 0.10588-1.9169 0.11981-2.5579 0.02931zm2.4228-2.4439c0.65336-0.1711 1.485-0.62402 1.9806-1.0781 1.6739-1.534 2.4893-4.2987 2.3629-8.0113-0.10476-3.0729-0.78494-5.1245-2.1663-6.5326-1.0168-1.0365-2.4554-1.552-3.866-1.3855-1.7366 0.20517-3.0475 1.1411-3.9454 2.8174-0.71276 1.3308-1.0566 2.8796-1.1322 5.1007-0.0839 2.4692 0.24108 4.5094 0.96061 6.0329 0.37375 0.79098 0.73526 1.3111 1.2797 1.8412 0.70273 0.68418 1.4993 1.1061 2.4211 1.2823 0.5473 0.10442 1.5752 0.07181 2.1049-0.06705zm23.718 2.4222c-0.97905-0.15315-1.8269-0.4786-2.5824-0.99161-0.43632-0.2964-1.0821-0.92152-1.2561-1.2161-0.0608-0.10259-0.12822-0.18649-0.15022-0.18649-0.0219 0-0.104 0.46626-0.18208 1.0361-0.0784 0.56983-0.15645 1.0863-0.17404 1.1477-0.0293 0.10076-0.13739 0.11175-1.111 0.11175h-1.0796v-21.55h2.4866v4.1443c0 2.2793 0.0219 4.1436 0.0476 4.1428 0.0257-7.33e-4 0.1341-0.11908 0.23925-0.2627 0.54433-0.74306 1.68-1.5601 2.6943-1.9383 1.7179-0.64062 4.1287-0.52323 5.8546 0.28504 2.0463 0.95842 3.3475 2.6636 3.9204 5.1371 0.19381 0.837 0.2429 2.7983 0.0941 3.7624-0.19638 1.2731-0.74683 2.634-1.4498 3.5842-1.1106 1.5014-2.7462 2.4804-4.6632 2.7913-0.69522 0.11284-1.9776 0.1143-2.6888 0.0025zm1.8893-2.2029c1.721-0.24877 3.1107-1.2901 3.8458-2.8813 0.94864-2.0532 0.73525-4.8608-0.49977-6.5767-1.0086-1.4012-2.6693-2.1772-4.4033-2.0576-2.4345 0.16817-4.1497 1.6966-4.7298 4.2151-0.16376 0.7103-0.16487 2.2738-2e-3 3.0275 0.14288 0.66315 0.40881 1.3643 0.72587 1.9138 0.32242 0.55902 1.2727 1.5021 1.786 1.7729 1.0385 0.54781 2.1584 0.74811 3.2777 0.58617zm39.139 2.2029c-3.8714-0.55704-6.8629-3.0903-8.1007-6.8598-0.67373-2.0518-0.80314-4.5237-0.35099-6.7016 0.54822-2.6395 1.925-4.8828 3.8857-6.3308 2.3078-1.7044 5.3691-2.3285 8.4232-1.717 3.4334 0.68733 6.2266 3.2287 7.3841 6.7184 0.67238 2.027 0.80358 4.5313 0.35245 6.7265-0.28797 1.4003-0.88037 2.8276-1.6548 3.9853-0.49044 0.73324-1.4968 1.7887-2.2222 2.3307-1.0728 0.80142-2.6122 1.4763-4.002 1.7543-0.88012 0.17623-2.8061 0.22496-3.7149 0.09416zm3.3812-2.5776c1.9799-0.50755 3.5244-1.6776 4.5266-3.4293 1.393-2.4346 1.5967-5.9445 0.50407-8.6836-0.90895-2.2785-2.6558-3.844-4.9688-4.4529-0.83546-0.21983-2.2015-0.27222-3.1154-0.11944-1.8997 0.31765-3.4597 1.2623-4.5967 2.7835-2.223 2.9741-2.2768 7.9437-0.1198 11.066 0.70635 1.0224 1.8911 1.9986 2.9715 2.4483 1.4322 0.59621 3.3729 0.75295 4.7986 0.38745zm39.689 2.5988c-1.7197-0.25024-3.0503-1.001-3.7989-2.1429-0.55224-0.84242-0.77097-1.8721-0.63768-3.0022 0.27441-2.3276 1.6652-3.6246 4.4353-4.1367 0.38309-0.07107 1.252-0.10259 3.4907-0.1275l2.9807-0.03298-9.1e-4 -0.71063c-1e-3 -1.2267-0.2583-1.9482-0.91783-2.5806-0.43181-0.41405-0.96999-0.69792-1.6635-0.87741-0.65791-0.17037-2.0514-0.15535-2.7416 0.02931-1.2985 0.3477-2.1611 1.0849-2.49 2.1282l-0.11541 0.3666h-1.2635c-1.0281 0-1.2635-0.01832-1.2635-0.08756 0-0.04837 0.0689-0.35869 0.15279-0.68982 0.67197-2.649 3.0165-4.1321 6.532-4.1321 2.8686 0 4.8406 1.0166 5.7508 2.9648 0.52045 1.1139 0.56741 1.6339 0.56954 6.3024 1e-3 3.9775 9.6e-4 3.9681 0.33634 4.1835 0.0927 0.05936 0.37561 0.10149 0.79698 0.11798l0.65351 0.02565v2.2808h-1.0084c-0.55464 0-1.1774-0.02931-1.3838-0.06961-0.44852-0.0828-1.0171-0.35942-1.2543-0.61002-0.25353-0.26746-0.49183-0.83909-0.53923-1.2926l-0.0417-0.39892-0.15902 0.21323c-0.36492 0.48963-1.2142 1.2403-1.7391 1.5373-0.62757 0.35502-1.4796 0.64476-2.1837 0.74251-0.57661 0.08023-1.9412 0.07914-2.4966-0.0019zm2.7811-2.1978c0.73148-0.13849 1.4228-0.41764 1.9466-0.78552 0.7509-0.5273 1.1795-1.1176 1.4956-2.0598 0.16744-0.49978 0.20371-0.71972 0.23228-1.4091l0.033-0.81688-3.0538 0.02198c-2.9854 0.02198-3.0638 0.02565-3.5001 0.1689-0.57052 0.18759-0.88949 0.37532-1.2243 0.72031-0.33414 0.3444-0.51876 0.75522-0.58445 1.3009-0.21507 1.7865 1.1102 2.9458 3.3797 2.9565 0.42617 2e-3 0.96907-0.03957 1.2752-0.09783zm-182.09 1.992c0.01103-0.0469 1.8564-4.8959 4.1001-10.775l4.0794-10.69h3.1966l3.9665 10.44c2.1816 5.7422 4.0236 10.592 4.0934 10.776l0.12677 0.33597-2.8974-0.03664-1.1226-2.8691-1.1226-2.8691h-9.4087l-1.1247 2.8837-1.1246 2.8837-1.3914 0.0014c-1.1324 0.0012-1.3876-0.01466-1.3708-0.08427zm13.571-8.187c0.0024-0.096-3.8515-10.278-3.8798-10.249-0.037 0.037-3.8347 10.185-3.8356 10.249-7.33e-4 0.02565 1.7351 0.04763 3.8567 0.04763 2.1216 0 3.858-0.02198 3.8587-0.04763zm27.447 8.2271c-0.79523-0.10992-1.6634-0.50667-2.0669-0.94438-0.29347-0.31875-0.58441-0.86594-0.74635-1.405-0.10442-0.34733-0.11541-0.8148-0.13483-5.6864l-0.02198-5.3079h-2.8643v-2.2953h2.8691v-4.3994h2.4849l0.01832 2.1837 0.01832 2.1837 4.0487 0.03664v2.2917l-4.0487 0.03664v4.9094c0 4.5395 0.01103 4.9338 0.11322 5.2338 0.12933 0.37074 0.3488 0.60706 0.71562 0.77108 0.21836 0.09783 0.48718 0.11724 1.8649 0.13556l1.6099 0.02198v2.2856l-1.833-0.01103c-1.0082-0.0036-1.9191-0.02198-2.0243-0.03664zm5.2601-10.73v-10.775h2.4856l0.0183 4.1817 0.0183 4.1817 0.39782-0.50513c0.80171-1.0178 1.837-1.6836 3.1215-2.0073 0.75646-0.19088 2.5064-0.20517 3.3346-0.02931 1.3742 0.2942 2.526 0.99088 3.2797 1.9836 0.62508 0.82337 1.0266 1.7806 1.2587 3.0004 0.12677 0.66531 0.13483 0.95937 0.16158 5.7223l0.0293 5.0209h-2.5544l-0.022-4.8615c-0.022-4.3742-0.033-4.9095-0.13556-5.3397-0.4198-1.7815-1.3476-2.8124-2.9077-3.231-0.5654-0.15168-1.8512-0.15278-2.4228-0.0019-1.7735 0.46798-2.9105 1.7799-3.3859 3.9066-0.13703 0.61387-0.14215 0.7694-0.16743 5.0803l-0.0257 4.4472h-2.4774v-10.775zm103.8 0v-10.775h2.486l0.0366 14.166 7.8373-8.3001h3.1195l-0.15424 0.17256c-0.1495 0.1667-5.1737 5.515-5.6878 6.0547l-0.25317 0.26563 3.2162 4.5162c1.7689 2.4838 3.2375 4.552 3.2636 4.5958 0.0374 0.06302-0.27514 0.07951-1.4788 0.07951h-1.5262l-2.5671-3.6501c-1.4119-2.0076-2.5791-3.6638-2.5938-3.6805-0.0147-0.01832-0.74075 0.70056-1.6135 1.5939l-1.5868 1.6243-2e-3 2.0562-3e-3 2.0562h-2.4866v-10.775zm19.701 10.68c-1.1543-0.23302-1.8547-0.7236-2.2875-1.6029-0.41882-0.85085-0.41067-0.73027-0.43706-6.4785l-0.0257-5.2122h-2.7985v-2.2953h2.8053v-4.3993h2.5504v4.3993h4.0805v2.2953h-4.0842l0.0183 5.021 0.0183 5.0209 0.14876 0.30226c0.31765 0.64509 0.68967 0.74958 2.668 0.74958h1.4868v2.2953l-1.8649-0.0036c-1.2624-0.0036-1.9988-0.03297-2.2794-0.08976zm-226.25-14.067c-0.33451-0.075108-0.71598-0.39302-0.86473-0.72056-0.11248-0.24731-0.11797-0.59236-0.11944-7.4191-0.001722-8.0881-0.025647-7.6951 0.48718-8.7481 0.25097-0.51784 0.37803-0.68931 0.87488-1.1819 0.6759-0.67015 1.0015-0.8492 2.7808-1.5292 4.5157-1.7258 9.274-2.9334 13.421-3.4063 1.4749-0.16817 1.7742-0.1678 2.0492 0.0022 0.24144 0.14912 0.49718 0.55335 0.55752 0.88093 0.05349 0.29054-0.43691 4.5517-0.63754 5.5395-0.35173 1.7321-0.9974 3.5662-1.8451 5.2418-2.4465 4.8356-6.5433 8.4945-11.518 10.287-1.0179 0.36678-2.3227 0.69667-3.557 0.89921-1.3428 0.22056-1.3366 0.21983-1.6286 0.15425zm40.118-0.12054c-2.3481-0.40708-4.0541-0.9494-5.9019-1.8761-2.128-1.0672-3.8185-2.3147-5.5904-4.1251-1.5747-1.6091-2.7604-3.2917-3.7898-5.3784-0.88422-1.7924-1.3833-3.2041-1.7551-4.9651-0.20517-0.97113-0.68623-5.0498-0.65278-5.5333 0.04763-0.68513 0.49828-1.1373 1.1334-1.1366 1.307 0.00143 5.0234 0.61116 7.6021 1.2473 3.455 0.85235 8.2399 2.4976 9.3496 3.2148 0.97113 0.62768 1.6417 1.5552 1.9249 2.6624 0.11834 0.46314 0.1231 0.77365 0.1231 7.8146v7.3323l-0.16121 0.27479c-0.18429 0.31472-0.57419 0.56771-0.95468 0.61955-0.15058 0.01832-0.69374-0.0414-1.3277-0.15132z" fill="#eef" stroke-width=".063758"/></svg>
